<?xml version="1.0" encoding="utf-8"?>
<!DOCTYPE svg PUBLIC "-//W3C//DTD SVG 1.1//EN" "http://www.w3.org/Graphics/SVG/1.1/DTD/svg11.dtd">
<svg version="1.1" id="newHeights" xmlns="http://www.w3.org/2000/svg" xmlns:xlink="http://www.w3.org/1999/xlink" x="0px" y="0px"
	 viewBox="0 0 1283.8 1408.6" style="enable-background:new 0 0 1283.8 1408.6;" xml:space="preserve">
<style type="text/css">
	.st0{fill:#D5E5EB;}
	.st1{fill:#E9EFF4;}
	.st2{fill:none;}
	.st3{fill:#004F82;}
	.st4{fill:#FFFFFF;}
	.st5{display:none;fill:#5ED37F;}
	.st6{display:none;fill:url(#SVGID_1_);}
	.st7{fill:#00BE28;}
</style>
<title>jetpack-newHeights</title>
<circle class="st0" cx="815.3" cy="651.1" r="22.7"/>
<circle class="st0" cx="115.9" cy="1199.2" r="11.3"/>
<path class="st1" d="M359.3,1144.8C99.5,1336,67.6,1358.9,0,1408.6h3.2l193.3-121.5L43.3,1408.6h11.6l148.9-109.8L85.5,1408.6h12.7
	c97.2-77.1,83.9-66.9,282.4-223.2L359.3,1144.8z"/>
<path class="st2" d="M205.9,1298.7l-150,109.8h31.7L205.9,1298.7z M196.4,1287.1L3.2,1408.6h41.2L196.4,1287.1z"/>
<path class="st1" d="M1207.2,512.7C995.3,669.8,843.7,777.5,843.7,777.5l21.1,26c277.1-219.6,223.3-190.9,344.6-288.5
	C1208.5,514.4,1207.8,513.6,1207.2,512.7z"/>
<path class="st3" d="M1279.6,457.5L1279.6,457.5c-0.8-1.6-2.2-2.8-4-3.1c-2-0.9-4.3-1.2-6.5-0.8c-1.4-0.2-2.8-0.3-4.3-0.3
	c-5.3,0-9.5,0-13.7,1.1c-8.7,1.1-17.2,3.2-25.3,6.3c-16.9,5.3-31.7,12.7-47.5,20.1c-3.7,1.2-6.2,4.6-6.3,8.5
	c-1.1,6.3,3.2,11.6,9.5,12.7h1.1c2.1,0,5.3,0,7.4,1.1c3.2,1.1,5.3,1.1,7.4,2.1c5.3,2.1,8.4,4.2,10.6,6.3c2.1,1.1,3.2,5.3,4.2,10.6
	v7.4c0,2.1-1.1,5.3-1.1,7.4v1.1c-1.1,3.5,0.2,7.4,3.2,9.5c5.3,4.2,11.6,3.2,15.8-1.1c1.1-1.1,2.1-3.2,4.2-4.2v-1
	c10-10.9,19.2-22.6,27.5-34.8c5-7.2,9.5-14.6,13.7-22.2c1.9-3.8,3.8-7.6,4.9-11.4C1283.8,468.1,1283.6,461.7,1279.6,457.5z"/>
<g>
	<path class="st0" d="M270.7,852.9c-12.3-6.2-24.7-12-37.2-17.9c-12.6-5.5-25.2-11-37.9-16.2s-25-11.3-40.2-11.2l-1.6,3.6
		c9.9,11.5,22.6,16.7,34.9,22.9s24.7,12,37.2,17.9c12.6,5.5,25.2,11,37.9,16.2s25,11.3,40.2,11.2l1.6-3.6
		C295.7,864.3,283,859.1,270.7,852.9z"/>
	<path class="st0" d="M440,646.7c-1.3-1.8-3.2-3.1-5.4-3.6l-4.8-1.8l-35.9-12.6l-9-3c-2.9-0.6-5.7-1.6-8.4-3
		c-4.9-2.6-8.7-6.8-10.8-12l-12.5-35.9l-6.6-18c-0.5-1.9-1.3-3.7-2.4-5.4c-0.5-1.4-1.6-2.5-3-3c-1.7-1-3.9-0.8-5.4,0.6
		c-1.8,1.3-3.1,3.2-3.6,5.4l-1.8,4.8l-12.6,35.9l-3,9c-0.6,2.9-1.6,5.7-3,8.4c-3,4.8-7.8,9.6-12.6,11.4l-35.9,13.2l-18,6.6
		c-1.7,0.7-3.3,1.5-4.8,2.4c-0.9,0.9-1.7,1.9-2.4,3c-0.4,1.6-0.2,3.3,0.6,4.8c1.3,1.8,3.2,3.1,5.4,3.6l4.8,1.8l36.5,12
		c6,1.8,12.6,3.6,18,6c5.4,3,10.2,7.2,12.6,13.2l10.1,35.9l6,18c0.7,1.7,1.5,3.3,2.4,4.8c0.6,0.6,1.2,1.8,2.4,2.4s3,0,4.2-0.6
		c1.8-1.2,2.4-3,3-4.8l1.8-4.8l13.2-35.9l3-9c1.2-3,2.4-6,3.6-8.4c2.8-5.1,7.2-9.1,12.6-11.4l35.9-12.6l18-6.6
		c1.9-0.5,3.7-1.3,5.4-2.4c1.4-0.5,2.5-1.6,3-3C441.7,650.4,441.4,648.2,440,646.7z"/>
</g>
<path class="st0" d="M1114.4,778.8l4.4-9.6c1.1-1.2,1.4-2.9,0.7-4.4c0-1.5-1.5-2.9-2.9-3.7c-1.2-0.5-2.4-0.8-3.7-0.7
	c-2,0.5-4,1.2-5.9,2.2l-18.4,8.8c-2.9,1.5-5.9,3.7-8.1,3.7c-2.2,0.7-5.2,0-7.4-0.7l-18.4-8.8l-9.5-4.4c-1.5-0.7-2.2-1.5-5.2-0.7
	c-1.5,0-2.9,1.5-3.7,2.9c-0.5,1.2-0.8,2.4-0.7,3.7c0.5,2,1.2,4,2.2,5.9l8.8,18.4c1.5,2.9,3.7,5.9,3.7,8.1c0.5,2.7,0.3,5.5-0.7,8.1
	l-8.8,18.4l-4.4,9.6c-0.7,1.5-1.5,2.2-0.7,4.4c0.2,1.3,1,2.4,2.2,2.9h2.9c2-0.5,4-1.2,5.9-2.2l18.4-9.6c2.9-1.5,5.9-3.7,8.8-4.4
	c3.1-0.7,6.4-0.7,9.6,0l0,0l19.1,11.8l9.6,4.4c0.7,0.7,1.5,0.7,3.7,0.7c1.5,0,2.2-0.7,2.9-2.2v-2.9c-0.5-2-1.2-4-2.2-5.9l-8.1-18.4
	c-1.5-3.7-3.7-6.6-3.7-8.8c-0.5-2.7-0.3-5.5,0.7-8.1L1114.4,778.8z"/>
<path class="st4" d="M613.9,75l-79.8,127.2c0,0-20,44.9,15,57.4l64.9,15L613.9,75z"/>
<path class="st4" d="M636.3,385.7l79.8-127.2c0,0,20-44.9-15-57.4l-64.9-15L636.3,385.7z"/>
<path class="st5" d="M622.8,500.8c3.9-0.6,50.3-5.9,50.3-5.9s-32.4,63.7-29.6,63.7H686l-99.6,110.7l36.3-87.2l-31.8,4.5L622.8,500.8
	z"/>
<linearGradient id="SVGID_1_" gradientUnits="userSpaceOnUse" x1="742.84" y1="118.2" x2="742.84" y2="-356.8" gradientTransform="matrix(1 0 0 1 -124.74 1081)">
	<stop  offset="0" style="stop-color:#00AADC"/>
	<stop  offset="0.3" style="stop-color:#03ABD9"/>
	<stop  offset="0.49" style="stop-color:#0BAFD1"/>
	<stop  offset="0.65" style="stop-color:#1AB5C2"/>
	<stop  offset="0.79" style="stop-color:#2FBEAE"/>
	<stop  offset="0.92" style="stop-color:#49CA93"/>
	<stop  offset="1" style="stop-color:#5ED37F"/>
</linearGradient>
<path class="st6" d="M618.1,724.2c-131,0-237.5,106.5-237.5,237.5s106.5,237.5,237.5,237.5s237.5-106.6,237.5-237.5
	S749.1,724.2,618.1,724.2z M404.6,961.7c0-29.9,6.3-59.6,18.5-86.9L525,1153.9C451.3,1118.2,404.6,1043.5,404.6,961.7z
	 M618.1,1175.3c-20.4,0-40.7-2.9-60.3-8.7l64.1-186.2l65.6,179.8c0.4,1,0.9,2,1.5,2.9C666.2,1171.2,642.3,1175.3,618.1,1175.3
	L618.1,1175.3z M647.5,861.6c12.8-0.7,24.4-2,24.4-2c11.5-1.4,10.2-18.3-1.4-17.6c0,0-34.6,2.7-56.9,2.7c-21,0-56.2-2.7-56.2-2.7
	c-11.5-0.7-12.9,16.9-1.3,17.6c0,0,10.9,1.3,22.4,2l33.3,91.2L565,1092.9l-77.8-231.3c12.9-0.7,24.4-2,24.4-2
	c11.5-1.4,10.1-18.3-1.4-17.6c0,0-34.6,2.7-56.9,2.7c-4,0-8.7-0.1-13.8-0.3c64.7-98.5,197.1-125.9,295.6-61.2
	c9.5,6.3,18.6,13.3,27,21c-0.9-0.1-1.8-0.2-2.8-0.2c-21,0-35.9,18.3-35.9,37.9c0,17.6,10.2,32.5,21,50.1
	c8.1,14.2,17.6,32.5,17.6,58.9c0,18.3-5.4,41.3-16.2,69l-21.3,71.2L647.5,861.6z M725.5,1146.3l65.2-188.6
	c12.2-30.5,16.2-54.8,16.2-76.5c0-7.4-0.5-14.7-1.4-22C861,960.8,825.5,1088,725.5,1146.3L725.5,1146.3z"/>
<path class="st0" d="M922.3,1197c-0.3-1.1-1.1-1.1-1.4-1.4c-0.7-0.2-1.4-0.4-2.1-0.7l-7.4-2.8c-1.1-0.2-2-0.7-2.8-1.4
	c-0.7-0.7-1.3-1.6-1.8-2.5l-2.5-7.4l-0.7-1.8c-0.3-0.9-0.8-1.8-1.4-2.5c-0.3-0.3-0.7-0.3-1.4-0.7c-0.3,0-1.4,0-1.8,0.3
	c-1.1,0.3-1.1,1.1-1.4,1.4c-0.2,0.7-0.4,1.4-0.7,2.1l-2.5,7.4c-0.2,1.1-0.7,2-1.4,2.8c-0.7,0.7-1.6,1.3-2.5,1.8l-7.4,2.8l-1.8,0.7
	c-0.8,0.2-1.5,0.5-2.1,1.1c-0.3,0.3-0.7,0.7-0.7,1.1c-0.4,0.4-0.4,1,0,1.4c0.3,0.7,1.1,0.7,1.4,1.1c0.7,0.2,1.4,0.4,2.1,0.7l7.4,2.1
	c1.1,0.3,2.2,0.8,3.2,1.4c1,0.8,1.8,1.7,2.5,2.8l2.1,8.1l0.7,1.8c0.3,0.3,0.3,1.4,1.1,2.1c0.3,0.3,0.7,0.7,1.1,0.7
	c0.4,0.4,1,0.4,1.4,0c0.7-0.7,0.7-1.1,1.1-1.4c0.2-0.7,0.4-1.4,0.7-2.1l2.8-7.4c0.2-1.1,0.7-2,1.4-2.8c0.7-0.7,1.6-1.3,2.5-1.8
	l7.4-2.5l1.8-0.7c0.9,0.1,1.9-0.3,2.5-1.1c0.3,0,0.3-0.3,0.7-1.1C922.6,1198.2,922.6,1197.5,922.3,1197z"/>
<path class="st0" d="M473.3,1226.7c-1.3-0.6-3-0.1-3.6,1.3c0,0.1-0.1,0.1-0.1,0.2l-4.1,12.2l-12.2,4.1c-0.9,0.2-1.7,0.9-1.8,1.8
	c-0.2,1.4,0.6,2.8,1.9,3.3l12.6,4.4c1.5,4.3,3.2,8.5,5.2,12.6l0.4,0.4c-0.1,0.5,0.3,1,0.9,1.1c0.1,0,0.2,0,0.2,0
	c1,0,1.9-0.6,2.2-1.5c1.5-4.4,2.2-8.9,3.3-13.7l0,0c5.2-1.5,9.6-2.2,14.4-3.3l1.1-1.1c0.4-1,0-2.1-1-2.5h-0.1
	c-4.3-1.5-8.5-3.2-12.6-5.2c-1.5-4.4-3.3-8.5-4.4-12.6C474.9,1227.5,474.2,1227,473.3,1226.7z"/>
<path class="st0" d="M960.9,928.6c-3-1.5-6,0-7.5,3l-8.2,24.6l-24.6,8.2c-1.9,0.4-3.3,1.9-3.7,3.7c-0.7,2.2,0.7,5.2,3.7,6.7l25.4,9
	c3,8.6,6.5,17.1,10.5,25.4l0.7,0.7c-0.1,1.1,0.6,2.1,1.7,2.2c0.2,0,0.3,0,0.5,0c2,0.1,3.8-1.1,4.5-3c3-9,4.5-17.9,6.7-27.6
	c10.5-3,18.7-5.2,29.1-6.7l2.2-2.2c0.7-2.2,0-4.5-2.2-5.2c-8.6-3-17.1-6.5-25.4-10.5c-3-9-6.7-17.2-9-25.4
	C964.2,930.1,962.7,929.1,960.9,928.6z"/>
<path class="st0" d="M652.1,1278.1c-0.7-2-2-2-2.7-2.7c-1.4-0.3-2.8-0.8-4.1-1.4l-14.3-5.4c-2.7-0.7-4.1-1.4-5.4-2.7
	c-1.4-1.4-2.5-3-3.4-4.8l-4.8-14.3l-1.4-3.4c-0.7-1.4-0.7-2.7-2.7-4.8c-0.7-0.7-1.4-0.7-2.7-1.4c-0.7,0-2.7,0-3.4,0.7
	c-2,0.7-2,2-2.7,2.7c-0.3,1.4-0.8,2.8-1.4,4.1l-4.8,14.3c-0.7,2.7-1.4,4.1-2.7,5.4c-1.4,1.4-3,2.5-4.8,3.4l-14.3,5.4l-3.4,1.4
	c-0.7,0-2,0.7-4.1,2c-0.7,0.7-1.4,1.4-1.4,2c-0.7,0.8-0.7,1.9,0,2.7c0.7,1.4,2,1.4,2.7,2c1.4,0.3,2.8,0.8,4.1,1.4l14.3,4.1
	c2.2,0.6,4.2,1.5,6.1,2.7c1.9,1.5,3.6,3.3,4.8,5.4l4.1,15.6l1.4,3.4c0.7,0.7,0.7,2.7,2,4.1c0.7,0.7,1.4,1.4,2,1.4
	c0.8,0.7,1.9,0.7,2.7,0c1.4-1.4,1.4-2,2-2.7c0.3-1.4,0.8-2.8,1.4-4.1l5.4-14.3c0.7-2.7,1.4-4.1,2.7-5.4c1.4-1.4,3-2.5,4.8-3.4
	l14.3-4.8l3.4-1.4c1.8,0.1,3.6-0.6,4.8-2c0.7,0,0.7-0.7,1.4-2C652.6,1280.5,652.7,1279.2,652.1,1278.1z"/>
<path class="st0" d="M240,989.6c-0.8-2.5-2.5-2.5-3.4-3.4c-2.5-0.8-3.4-0.9-5-1.7l-17.7-6.7c-3.4-0.9-5-1.7-6.7-3.4
	c-1.7-1.8-3.1-3.7-4.2-5.9l-5.9-17.7l-1.7-4.2c-0.8-1.7-0.9-3.4-3.4-5.9c-0.8-0.8-1.7-0.8-3.4-1.7c-0.8,0-3.4,0-4.2,0.8
	c-2.5,0.8-2.5,2.5-3.4,3.4c-0.8,2.5-0.9,3.4-1.7,5l-5.9,17.7c-0.9,3.4-1.7,5-3.4,6.7c-1.8,1.7-3.7,3.1-5.9,4.2l-17.6,6.7l-4.2,1.7
	c-0.8,0-2.5,0.8-5,2.5c-0.8,0.8-1.7,1.7-1.7,2.5c-0.8,1-0.8,2.4,0,3.4c0.8,1.7,2.5,1.7,3.4,2.5c2.5,0.8,3.4,0.9,5,1.7l17.7,5
	c2.7,0.8,5.2,1.9,7.6,3.3c2.5,1.7,4.2,4.2,5.9,6.7l5,19.3l1.7,4.2c0.8,0.8,0.9,3.4,2.5,5c0.8,0.8,1.7,1.7,2.5,1.7
	c1,0.8,2.4,0.8,3.4,0c1.7-1.7,1.7-2.5,2.5-3.4c0.8-2.5,0.9-3.4,1.7-5l6.7-17.7c0.9-3.4,1.7-5,3.4-6.7c1.8-1.7,3.7-3.1,5.9-4.2
	l17.7-5.9l4.2-1.7c1.7,0,3.4,0,5.9-2.5c0.8,0,0.8-0.8,1.7-2.5C240.9,992.5,240.9,990.9,240,989.6z"/>
<g>
	<path class="st7" d="M618.1,728.9c-129.2,0-234,104.8-234,234c0,129.2,104.8,234,234,234c129.2,0,234-104.8,234-234
		C852.1,833.6,747.3,728.9,618.1,728.9z M606.2,1002H489.5l116.7-226.8V1002z M630,1150.5V923.7h116.7L630,1150.5z"/>
</g>
</svg>
